<mxfile host="app.diagrams.net" modified="2024-06-20T00:47:54.294Z" agent="Mozilla/5.0 (Windows NT 10.0; Win64; x64) AppleWebKit/537.36 (KHTML, like Gecko) Chrome/126.0.0.0 Safari/537.36" etag="N1nk50bZNDuOkvjC6PZa" version="24.5.5" type="github">
  <diagram id="prtHgNgQTEPvFCAcTncT" name="Page-1">
    <mxGraphModel dx="1247" dy="657" grid="1" gridSize="10" guides="1" tooltips="1" connect="1" arrows="1" fold="1" page="1" pageScale="1" pageWidth="1169" pageHeight="827" math="0" shadow="0">
      <root>
        <mxCell id="0" />
        <mxCell id="1" parent="0" />
        <mxCell id="Q3Qc4RJNEyqU-LYfuUZ3-5" value="Application" style="swimlane;whiteSpace=wrap;html=1;strokeColor=#E07A5F;fontColor=#393C56;fillColor=#F2CC8F;" parent="1" vertex="1">
          <mxGeometry x="320" y="80" width="1650" height="700" as="geometry" />
        </mxCell>
        <mxCell id="Q3Qc4RJNEyqU-LYfuUZ3-9" value="Platform" style="swimlane;whiteSpace=wrap;html=1;strokeColor=#E07A5F;fontColor=#393C56;fillColor=#F2CC8F;startSize=23;" parent="Q3Qc4RJNEyqU-LYfuUZ3-5" vertex="1">
          <mxGeometry x="1010" y="20" width="640" height="680" as="geometry" />
        </mxCell>
        <mxCell id="Q3Qc4RJNEyqU-LYfuUZ3-10" value="&lt;font style=&quot;font-size: 18px;&quot;&gt;Postgres&lt;/font&gt;" style="strokeWidth=2;html=1;shape=mxgraph.flowchart.database;whiteSpace=wrap;strokeColor=#E07A5F;fontColor=#393C56;fillColor=#F2CC8F;labelPosition=center;verticalLabelPosition=top;align=center;verticalAlign=bottom;" parent="Q3Qc4RJNEyqU-LYfuUZ3-9" vertex="1">
          <mxGeometry x="115" y="150" width="410" height="290" as="geometry" />
        </mxCell>
        <mxCell id="Q3Qc4RJNEyqU-LYfuUZ3-16" value="&lt;font style=&quot;font-size: 18px;&quot;&gt;Docker&lt;/font&gt;" style="rounded=1;whiteSpace=wrap;html=1;strokeColor=#E07A5F;fontColor=#393C56;fillColor=#F2CC8F;labelPosition=center;verticalLabelPosition=top;align=center;verticalAlign=bottom;" parent="Q3Qc4RJNEyqU-LYfuUZ3-9" vertex="1">
          <mxGeometry x="190" y="530" width="240" height="130" as="geometry" />
        </mxCell>
        <mxCell id="Q3Qc4RJNEyqU-LYfuUZ3-17" value="&lt;font style=&quot;font-size: 18px;&quot;&gt;Redis&lt;/font&gt;" style="rounded=1;whiteSpace=wrap;html=1;strokeColor=#E07A5F;fontColor=#393C56;fillColor=#F2CC8F;" parent="Q3Qc4RJNEyqU-LYfuUZ3-9" vertex="1">
          <mxGeometry x="270" y="565" width="80" height="60" as="geometry" />
        </mxCell>
        <mxCell id="Q3Qc4RJNEyqU-LYfuUZ3-19" value="User" style="swimlane;fontStyle=0;childLayout=stackLayout;horizontal=1;startSize=30;horizontalStack=0;resizeParent=1;resizeParentMax=0;resizeLast=0;collapsible=1;marginBottom=0;whiteSpace=wrap;html=1;strokeColor=#E07A5F;fontColor=#393C56;fillColor=#F2CC8F;" parent="Q3Qc4RJNEyqU-LYfuUZ3-9" vertex="1">
          <mxGeometry x="160" y="270" width="140" height="60" as="geometry" />
        </mxCell>
        <mxCell id="Q3Qc4RJNEyqU-LYfuUZ3-20" value="id&amp;nbsp;" style="text;strokeColor=none;fillColor=none;align=left;verticalAlign=middle;spacingLeft=4;spacingRight=4;overflow=hidden;points=[[0,0.5],[1,0.5]];portConstraint=eastwest;rotatable=0;whiteSpace=wrap;html=1;fontColor=#393C56;" parent="Q3Qc4RJNEyqU-LYfuUZ3-19" vertex="1">
          <mxGeometry y="30" width="140" height="30" as="geometry" />
        </mxCell>
        <mxCell id="Q3Qc4RJNEyqU-LYfuUZ3-23" value="Tier" style="swimlane;fontStyle=0;childLayout=stackLayout;horizontal=1;startSize=30;horizontalStack=0;resizeParent=1;resizeParentMax=0;resizeLast=0;collapsible=1;marginBottom=0;whiteSpace=wrap;html=1;strokeColor=#E07A5F;fontColor=#393C56;fillColor=#F2CC8F;" parent="Q3Qc4RJNEyqU-LYfuUZ3-9" vertex="1">
          <mxGeometry x="350" y="270" width="140" height="60" as="geometry" />
        </mxCell>
        <mxCell id="Q3Qc4RJNEyqU-LYfuUZ3-24" value="id&amp;nbsp;" style="text;strokeColor=none;fillColor=none;align=left;verticalAlign=middle;spacingLeft=4;spacingRight=4;overflow=hidden;points=[[0,0.5],[1,0.5]];portConstraint=eastwest;rotatable=0;whiteSpace=wrap;html=1;fontColor=#393C56;" parent="Q3Qc4RJNEyqU-LYfuUZ3-23" vertex="1">
          <mxGeometry y="30" width="140" height="30" as="geometry" />
        </mxCell>
        <mxCell id="Q3Qc4RJNEyqU-LYfuUZ3-18" value="Spring boot app" style="swimlane;whiteSpace=wrap;html=1;strokeColor=#E07A5F;fontColor=#393C56;fillColor=#F2CC8F;" parent="Q3Qc4RJNEyqU-LYfuUZ3-5" vertex="1">
          <mxGeometry y="20" width="1010" height="680" as="geometry" />
        </mxCell>
        <mxCell id="Q3Qc4RJNEyqU-LYfuUZ3-6" value="PointsController" style="swimlane;whiteSpace=wrap;html=1;strokeColor=#E07A5F;fontColor=#393C56;fillColor=#F2CC8F;" parent="Q3Qc4RJNEyqU-LYfuUZ3-18" vertex="1">
          <mxGeometry y="20" width="180" height="660" as="geometry" />
        </mxCell>
        <mxCell id="Q3Qc4RJNEyqU-LYfuUZ3-27" value="POST&lt;div&gt;/api/v1/points/issue&lt;br&gt;@Param id&lt;br&gt;@Param points&lt;/div&gt;" style="rounded=1;whiteSpace=wrap;html=1;strokeColor=#E07A5F;fontColor=#393C56;fillColor=#F2CC8F;" parent="Q3Qc4RJNEyqU-LYfuUZ3-6" vertex="1">
          <mxGeometry x="10" y="60" width="120" height="60" as="geometry" />
        </mxCell>
        <mxCell id="Q3Qc4RJNEyqU-LYfuUZ3-7" value="PointsService" style="swimlane;whiteSpace=wrap;html=1;strokeColor=#E07A5F;fontColor=#393C56;fillColor=#F2CC8F;startSize=23;" parent="Q3Qc4RJNEyqU-LYfuUZ3-18" vertex="1">
          <mxGeometry x="180" y="20" width="250" height="660" as="geometry" />
        </mxCell>
        <mxCell id="Q3Qc4RJNEyqU-LYfuUZ3-42" value="issuePointsService(&lt;div&gt;id, points )&lt;/div&gt;" style="rounded=1;whiteSpace=wrap;html=1;strokeColor=#E07A5F;fontColor=#393C56;fillColor=#F2CC8F;" parent="Q3Qc4RJNEyqU-LYfuUZ3-7" vertex="1">
          <mxGeometry x="30" y="50" width="160" height="560" as="geometry" />
        </mxCell>
        <mxCell id="NIwn9OYLPKV0Wa0VJLMh-13" style="edgeStyle=orthogonalEdgeStyle;rounded=0;orthogonalLoop=1;jettySize=auto;html=1;strokeColor=#E07A5F;fontColor=#393C56;fillColor=#F2CC8F;entryX=0;entryY=0.5;entryDx=0;entryDy=0;exitX=1.008;exitY=0.072;exitDx=0;exitDy=0;exitPerimeter=0;" edge="1" parent="Q3Qc4RJNEyqU-LYfuUZ3-7">
          <mxGeometry relative="1" as="geometry">
            <mxPoint x="190" y="440" as="sourcePoint" />
            <mxPoint x="269" y="440" as="targetPoint" />
            <Array as="points">
              <mxPoint x="209" y="440" />
            </Array>
          </mxGeometry>
        </mxCell>
        <mxCell id="NIwn9OYLPKV0Wa0VJLMh-14" style="edgeStyle=orthogonalEdgeStyle;rounded=0;orthogonalLoop=1;jettySize=auto;html=1;strokeColor=#E07A5F;fontColor=#393C56;fillColor=#F2CC8F;entryX=1.001;entryY=0.112;entryDx=0;entryDy=0;exitX=0;exitY=0.75;exitDx=0;exitDy=0;entryPerimeter=0;" edge="1" parent="Q3Qc4RJNEyqU-LYfuUZ3-7">
          <mxGeometry relative="1" as="geometry">
            <mxPoint x="270" y="460" as="sourcePoint" />
            <mxPoint x="190" y="468" as="targetPoint" />
            <Array as="points">
              <mxPoint x="270" y="468" />
              <mxPoint x="239" y="468" />
            </Array>
          </mxGeometry>
        </mxCell>
        <mxCell id="Q3Qc4RJNEyqU-LYfuUZ3-8" value="UserRepository" style="swimlane;whiteSpace=wrap;html=1;strokeColor=#E07A5F;fontColor=#393C56;fillColor=#F2CC8F;" parent="Q3Qc4RJNEyqU-LYfuUZ3-18" vertex="1">
          <mxGeometry x="590" y="20" width="220" height="660" as="geometry" />
        </mxCell>
        <mxCell id="Q3Qc4RJNEyqU-LYfuUZ3-46" value="findById(id)" style="rounded=1;whiteSpace=wrap;html=1;strokeColor=#E07A5F;fontColor=#393C56;fillColor=#F2CC8F;" parent="Q3Qc4RJNEyqU-LYfuUZ3-8" vertex="1">
          <mxGeometry x="30" y="140" width="120" height="60" as="geometry" />
        </mxCell>
        <mxCell id="Q3Qc4RJNEyqU-LYfuUZ3-91" value="issuePointsQuery(&lt;div&gt;id, newPoints)&lt;/div&gt;" style="rounded=1;whiteSpace=wrap;html=1;strokeColor=#E07A5F;fontColor=#393C56;fillColor=#F2CC8F;" parent="Q3Qc4RJNEyqU-LYfuUZ3-8" vertex="1">
          <mxGeometry x="67.5" y="340" width="125" height="60" as="geometry" />
        </mxCell>
        <mxCell id="Q3Qc4RJNEyqU-LYfuUZ3-43" style="edgeStyle=orthogonalEdgeStyle;rounded=0;orthogonalLoop=1;jettySize=auto;html=1;exitX=1;exitY=0.5;exitDx=0;exitDy=0;entryX=0.004;entryY=0.124;entryDx=0;entryDy=0;strokeColor=#E07A5F;fontColor=#393C56;fillColor=#F2CC8F;entryPerimeter=0;" parent="Q3Qc4RJNEyqU-LYfuUZ3-18" source="Q3Qc4RJNEyqU-LYfuUZ3-27" target="Q3Qc4RJNEyqU-LYfuUZ3-42" edge="1">
          <mxGeometry relative="1" as="geometry" />
        </mxCell>
        <mxCell id="Q3Qc4RJNEyqU-LYfuUZ3-68" value="Call service" style="edgeLabel;html=1;align=center;verticalAlign=middle;resizable=0;points=[];strokeColor=#E07A5F;fontColor=#393C56;fillColor=#F2CC8F;" parent="Q3Qc4RJNEyqU-LYfuUZ3-43" vertex="1" connectable="0">
          <mxGeometry x="-0.0925" relative="1" as="geometry">
            <mxPoint as="offset" />
          </mxGeometry>
        </mxCell>
        <mxCell id="Q3Qc4RJNEyqU-LYfuUZ3-57" value="TierRepository" style="swimlane;whiteSpace=wrap;html=1;strokeColor=#E07A5F;fontColor=#393C56;fillColor=#F2CC8F;" parent="Q3Qc4RJNEyqU-LYfuUZ3-18" vertex="1">
          <mxGeometry x="810" y="20" width="200" height="660" as="geometry" />
        </mxCell>
        <mxCell id="Q3Qc4RJNEyqU-LYfuUZ3-59" value="findById(id)" style="rounded=1;whiteSpace=wrap;html=1;strokeColor=#E07A5F;fontColor=#393C56;fillColor=#F2CC8F;" parent="Q3Qc4RJNEyqU-LYfuUZ3-57" vertex="1">
          <mxGeometry x="50" y="230" width="120" height="60" as="geometry" />
        </mxCell>
        <mxCell id="Q3Qc4RJNEyqU-LYfuUZ3-71" style="edgeStyle=orthogonalEdgeStyle;rounded=0;orthogonalLoop=1;jettySize=auto;html=1;exitX=1.003;exitY=0.214;exitDx=0;exitDy=0;entryX=0;entryY=0.5;entryDx=0;entryDy=0;strokeColor=#E07A5F;fontColor=#393C56;fillColor=#F2CC8F;exitPerimeter=0;" parent="Q3Qc4RJNEyqU-LYfuUZ3-18" source="Q3Qc4RJNEyqU-LYfuUZ3-42" target="Q3Qc4RJNEyqU-LYfuUZ3-46" edge="1">
          <mxGeometry relative="1" as="geometry" />
        </mxCell>
        <mxCell id="Q3Qc4RJNEyqU-LYfuUZ3-73" value="Call user repository" style="edgeLabel;html=1;align=center;verticalAlign=middle;resizable=0;points=[];strokeColor=#E07A5F;fontColor=#393C56;fillColor=#F2CC8F;" parent="Q3Qc4RJNEyqU-LYfuUZ3-71" vertex="1" connectable="0">
          <mxGeometry x="-0.1668" y="3" relative="1" as="geometry">
            <mxPoint as="offset" />
          </mxGeometry>
        </mxCell>
        <mxCell id="Q3Qc4RJNEyqU-LYfuUZ3-78" style="edgeStyle=orthogonalEdgeStyle;rounded=0;orthogonalLoop=1;jettySize=auto;html=1;exitX=0;exitY=0.75;exitDx=0;exitDy=0;strokeColor=#E07A5F;fontColor=#393C56;fillColor=#F2CC8F;entryX=0.998;entryY=0.241;entryDx=0;entryDy=0;entryPerimeter=0;" parent="Q3Qc4RJNEyqU-LYfuUZ3-18" source="Q3Qc4RJNEyqU-LYfuUZ3-46" target="Q3Qc4RJNEyqU-LYfuUZ3-42" edge="1">
          <mxGeometry relative="1" as="geometry">
            <mxPoint x="501" y="138" as="targetPoint" />
          </mxGeometry>
        </mxCell>
        <mxCell id="Q3Qc4RJNEyqU-LYfuUZ3-79" value="User" style="edgeLabel;html=1;align=center;verticalAlign=middle;resizable=0;points=[];strokeColor=#E07A5F;fontColor=#393C56;fillColor=#F2CC8F;" parent="Q3Qc4RJNEyqU-LYfuUZ3-78" vertex="1" connectable="0">
          <mxGeometry x="0.102" y="3" relative="1" as="geometry">
            <mxPoint as="offset" />
          </mxGeometry>
        </mxCell>
        <mxCell id="Q3Qc4RJNEyqU-LYfuUZ3-83" style="edgeStyle=orthogonalEdgeStyle;rounded=0;orthogonalLoop=1;jettySize=auto;html=1;exitX=1.011;exitY=0.342;exitDx=0;exitDy=0;strokeColor=#E07A5F;fontColor=#393C56;fillColor=#F2CC8F;entryX=0;entryY=0.188;entryDx=0;entryDy=0;entryPerimeter=0;exitPerimeter=0;" parent="Q3Qc4RJNEyqU-LYfuUZ3-18" source="Q3Qc4RJNEyqU-LYfuUZ3-42" target="Q3Qc4RJNEyqU-LYfuUZ3-59" edge="1">
          <mxGeometry relative="1" as="geometry">
            <mxPoint x="850" y="170" as="targetPoint" />
          </mxGeometry>
        </mxCell>
        <mxCell id="Q3Qc4RJNEyqU-LYfuUZ3-85" value="Call tier repository" style="edgeLabel;html=1;align=center;verticalAlign=middle;resizable=0;points=[];strokeColor=#E07A5F;fontColor=#393C56;fillColor=#F2CC8F;" parent="Q3Qc4RJNEyqU-LYfuUZ3-83" vertex="1" connectable="0">
          <mxGeometry x="-0.0243" y="-1" relative="1" as="geometry">
            <mxPoint x="-1" as="offset" />
          </mxGeometry>
        </mxCell>
        <mxCell id="Q3Qc4RJNEyqU-LYfuUZ3-89" style="edgeStyle=orthogonalEdgeStyle;rounded=0;orthogonalLoop=1;jettySize=auto;html=1;exitX=0;exitY=0.75;exitDx=0;exitDy=0;strokeColor=#E07A5F;fontColor=#393C56;fillColor=#F2CC8F;" parent="Q3Qc4RJNEyqU-LYfuUZ3-18" source="Q3Qc4RJNEyqU-LYfuUZ3-59" edge="1">
          <mxGeometry relative="1" as="geometry">
            <mxPoint x="368" y="295" as="targetPoint" />
          </mxGeometry>
        </mxCell>
        <mxCell id="Q3Qc4RJNEyqU-LYfuUZ3-90" value="Tier" style="edgeLabel;html=1;align=center;verticalAlign=middle;resizable=0;points=[];strokeColor=#E07A5F;fontColor=#393C56;fillColor=#F2CC8F;" parent="Q3Qc4RJNEyqU-LYfuUZ3-89" vertex="1" connectable="0">
          <mxGeometry x="-0.0023" relative="1" as="geometry">
            <mxPoint x="-1" as="offset" />
          </mxGeometry>
        </mxCell>
        <mxCell id="Q3Qc4RJNEyqU-LYfuUZ3-92" style="edgeStyle=orthogonalEdgeStyle;rounded=0;orthogonalLoop=1;jettySize=auto;html=1;strokeColor=#E07A5F;fontColor=#393C56;fillColor=#F2CC8F;entryX=0.02;entryY=0.31;entryDx=0;entryDy=0;exitX=0.993;exitY=0.551;exitDx=0;exitDy=0;exitPerimeter=0;entryPerimeter=0;" parent="Q3Qc4RJNEyqU-LYfuUZ3-18" target="Q3Qc4RJNEyqU-LYfuUZ3-91" edge="1" source="Q3Qc4RJNEyqU-LYfuUZ3-42">
          <mxGeometry relative="1" as="geometry">
            <mxPoint x="370" y="375" as="sourcePoint" />
            <mxPoint x="620" y="263" as="targetPoint" />
          </mxGeometry>
        </mxCell>
        <mxCell id="Q3Qc4RJNEyqU-LYfuUZ3-97" style="edgeStyle=orthogonalEdgeStyle;rounded=0;orthogonalLoop=1;jettySize=auto;html=1;exitX=0;exitY=0.75;exitDx=0;exitDy=0;strokeColor=#E07A5F;fontColor=#393C56;fillColor=#F2CC8F;entryX=0.988;entryY=0.597;entryDx=0;entryDy=0;entryPerimeter=0;" parent="Q3Qc4RJNEyqU-LYfuUZ3-18" source="Q3Qc4RJNEyqU-LYfuUZ3-91" target="Q3Qc4RJNEyqU-LYfuUZ3-42" edge="1">
          <mxGeometry relative="1" as="geometry">
            <mxPoint x="510" y="290" as="targetPoint" />
          </mxGeometry>
        </mxCell>
        <mxCell id="Q3Qc4RJNEyqU-LYfuUZ3-98" value="Sucess" style="edgeLabel;html=1;align=center;verticalAlign=middle;resizable=0;points=[];strokeColor=#E07A5F;fontColor=#393C56;fillColor=#F2CC8F;" parent="Q3Qc4RJNEyqU-LYfuUZ3-97" vertex="1" connectable="0">
          <mxGeometry x="0.2647" y="-2" relative="1" as="geometry">
            <mxPoint as="offset" />
          </mxGeometry>
        </mxCell>
        <mxCell id="NIwn9OYLPKV0Wa0VJLMh-1" value="LockProvider" style="swimlane;whiteSpace=wrap;html=1;strokeColor=#E07A5F;fontColor=#393C56;fillColor=#F2CC8F;" vertex="1" parent="Q3Qc4RJNEyqU-LYfuUZ3-18">
          <mxGeometry x="430" y="20" width="160" height="660" as="geometry" />
        </mxCell>
        <mxCell id="NIwn9OYLPKV0Wa0VJLMh-4" value="tryLock" style="rounded=1;whiteSpace=wrap;html=1;strokeColor=#E07A5F;fontColor=#393C56;fillColor=#F2CC8F;" vertex="1" parent="NIwn9OYLPKV0Wa0VJLMh-1">
          <mxGeometry x="20" y="60" width="120" height="60" as="geometry" />
        </mxCell>
        <mxCell id="NIwn9OYLPKV0Wa0VJLMh-10" value="Unlock" style="rounded=1;whiteSpace=wrap;html=1;strokeColor=#E07A5F;fontColor=#393C56;fillColor=#F2CC8F;" vertex="1" parent="NIwn9OYLPKV0Wa0VJLMh-1">
          <mxGeometry x="20" y="420" width="120" height="60" as="geometry" />
        </mxCell>
        <mxCell id="NIwn9OYLPKV0Wa0VJLMh-6" style="edgeStyle=orthogonalEdgeStyle;rounded=0;orthogonalLoop=1;jettySize=auto;html=1;strokeColor=#E07A5F;fontColor=#393C56;fillColor=#F2CC8F;entryX=0;entryY=0.5;entryDx=0;entryDy=0;exitX=1.008;exitY=0.072;exitDx=0;exitDy=0;exitPerimeter=0;" edge="1" parent="Q3Qc4RJNEyqU-LYfuUZ3-18" source="Q3Qc4RJNEyqU-LYfuUZ3-42" target="NIwn9OYLPKV0Wa0VJLMh-4">
          <mxGeometry relative="1" as="geometry">
            <mxPoint x="390" y="120" as="sourcePoint" />
            <mxPoint x="410" y="130" as="targetPoint" />
            <Array as="points">
              <mxPoint x="390" y="110" />
            </Array>
          </mxGeometry>
        </mxCell>
        <mxCell id="NIwn9OYLPKV0Wa0VJLMh-9" style="edgeStyle=orthogonalEdgeStyle;rounded=0;orthogonalLoop=1;jettySize=auto;html=1;strokeColor=#E07A5F;fontColor=#393C56;fillColor=#F2CC8F;entryX=1.001;entryY=0.112;entryDx=0;entryDy=0;exitX=0;exitY=0.75;exitDx=0;exitDy=0;entryPerimeter=0;" edge="1" parent="Q3Qc4RJNEyqU-LYfuUZ3-18" source="NIwn9OYLPKV0Wa0VJLMh-4" target="Q3Qc4RJNEyqU-LYfuUZ3-42">
          <mxGeometry relative="1" as="geometry">
            <mxPoint x="400" y="170" as="sourcePoint" />
            <mxPoint x="479" y="170" as="targetPoint" />
            <Array as="points">
              <mxPoint x="450" y="133" />
              <mxPoint x="419" y="133" />
            </Array>
          </mxGeometry>
        </mxCell>
        <mxCell id="Q3Qc4RJNEyqU-LYfuUZ3-66" style="edgeStyle=orthogonalEdgeStyle;rounded=0;orthogonalLoop=1;jettySize=auto;html=1;strokeColor=#E07A5F;fontColor=#393C56;fillColor=#F2CC8F;exitX=0.75;exitY=1;exitDx=0;exitDy=0;entryX=0;entryY=0.5;entryDx=0;entryDy=0;" parent="Q3Qc4RJNEyqU-LYfuUZ3-5" source="NIwn9OYLPKV0Wa0VJLMh-4" target="Q3Qc4RJNEyqU-LYfuUZ3-17" edge="1">
          <mxGeometry relative="1" as="geometry">
            <mxPoint x="730" y="615" as="sourcePoint" />
            <mxPoint x="510" y="660" as="targetPoint" />
          </mxGeometry>
        </mxCell>
        <mxCell id="Q3Qc4RJNEyqU-LYfuUZ3-67" value="Create a lock with string + id" style="edgeLabel;html=1;align=center;verticalAlign=middle;resizable=0;points=[];strokeColor=#E07A5F;fontColor=#393C56;fillColor=#F2CC8F;" parent="Q3Qc4RJNEyqU-LYfuUZ3-66" vertex="1" connectable="0">
          <mxGeometry x="-0.0589" y="1" relative="1" as="geometry">
            <mxPoint as="offset" />
          </mxGeometry>
        </mxCell>
        <mxCell id="Q3Qc4RJNEyqU-LYfuUZ3-74" style="edgeStyle=orthogonalEdgeStyle;rounded=0;orthogonalLoop=1;jettySize=auto;html=1;exitX=1;exitY=0.5;exitDx=0;exitDy=0;entryX=0;entryY=0.15;entryDx=0;entryDy=0;entryPerimeter=0;strokeColor=#E07A5F;fontColor=#393C56;fillColor=#F2CC8F;" parent="Q3Qc4RJNEyqU-LYfuUZ3-5" source="Q3Qc4RJNEyqU-LYfuUZ3-46" target="Q3Qc4RJNEyqU-LYfuUZ3-10" edge="1">
          <mxGeometry relative="1" as="geometry" />
        </mxCell>
        <mxCell id="Q3Qc4RJNEyqU-LYfuUZ3-75" value="Retrieve user" style="edgeLabel;html=1;align=center;verticalAlign=middle;resizable=0;points=[];strokeColor=#E07A5F;fontColor=#393C56;fillColor=#F2CC8F;" parent="Q3Qc4RJNEyqU-LYfuUZ3-74" vertex="1" connectable="0">
          <mxGeometry x="-0.0076" y="2" relative="1" as="geometry">
            <mxPoint as="offset" />
          </mxGeometry>
        </mxCell>
        <mxCell id="Q3Qc4RJNEyqU-LYfuUZ3-76" style="edgeStyle=orthogonalEdgeStyle;rounded=0;orthogonalLoop=1;jettySize=auto;html=1;exitX=-0.009;exitY=0.206;exitDx=0;exitDy=0;exitPerimeter=0;entryX=1;entryY=0.75;entryDx=0;entryDy=0;strokeColor=#E07A5F;fontColor=#393C56;fillColor=#F2CC8F;" parent="Q3Qc4RJNEyqU-LYfuUZ3-5" source="Q3Qc4RJNEyqU-LYfuUZ3-10" target="Q3Qc4RJNEyqU-LYfuUZ3-46" edge="1">
          <mxGeometry relative="1" as="geometry" />
        </mxCell>
        <mxCell id="Q3Qc4RJNEyqU-LYfuUZ3-77" value="User retrieved" style="edgeLabel;html=1;align=center;verticalAlign=middle;resizable=0;points=[];strokeColor=#E07A5F;fontColor=#393C56;fillColor=#F2CC8F;" parent="Q3Qc4RJNEyqU-LYfuUZ3-76" vertex="1" connectable="0">
          <mxGeometry x="-0.0048" y="1" relative="1" as="geometry">
            <mxPoint as="offset" />
          </mxGeometry>
        </mxCell>
        <mxCell id="Q3Qc4RJNEyqU-LYfuUZ3-84" style="edgeStyle=orthogonalEdgeStyle;rounded=0;orthogonalLoop=1;jettySize=auto;html=1;exitX=1;exitY=0.75;exitDx=0;exitDy=0;strokeColor=#E07A5F;fontColor=#393C56;fillColor=#F2CC8F;entryX=0;entryY=0.5;entryDx=0;entryDy=0;entryPerimeter=0;" parent="Q3Qc4RJNEyqU-LYfuUZ3-5" source="Q3Qc4RJNEyqU-LYfuUZ3-59" edge="1" target="Q3Qc4RJNEyqU-LYfuUZ3-10">
          <mxGeometry relative="1" as="geometry">
            <mxPoint x="1120" y="225" as="targetPoint" />
          </mxGeometry>
        </mxCell>
        <mxCell id="Q3Qc4RJNEyqU-LYfuUZ3-86" value="Retrieve Tier" style="edgeLabel;html=1;align=center;verticalAlign=middle;resizable=0;points=[];strokeColor=#E07A5F;fontColor=#393C56;fillColor=#F2CC8F;" parent="Q3Qc4RJNEyqU-LYfuUZ3-84" vertex="1" connectable="0">
          <mxGeometry x="-0.0517" y="-1" relative="1" as="geometry">
            <mxPoint x="-1" as="offset" />
          </mxGeometry>
        </mxCell>
        <mxCell id="Q3Qc4RJNEyqU-LYfuUZ3-87" style="edgeStyle=orthogonalEdgeStyle;rounded=0;orthogonalLoop=1;jettySize=auto;html=1;strokeColor=#E07A5F;fontColor=#393C56;fillColor=#F2CC8F;entryX=1;entryY=0.25;entryDx=0;entryDy=0;exitX=0.005;exitY=0.397;exitDx=0;exitDy=0;exitPerimeter=0;" parent="Q3Qc4RJNEyqU-LYfuUZ3-5" edge="1" target="Q3Qc4RJNEyqU-LYfuUZ3-59" source="Q3Qc4RJNEyqU-LYfuUZ3-10">
          <mxGeometry relative="1" as="geometry">
            <mxPoint x="1130" y="255" as="sourcePoint" />
            <mxPoint x="969" y="255" as="targetPoint" />
          </mxGeometry>
        </mxCell>
        <mxCell id="Q3Qc4RJNEyqU-LYfuUZ3-88" value="Tier retrieved" style="edgeLabel;html=1;align=center;verticalAlign=middle;resizable=0;points=[];strokeColor=#E07A5F;fontColor=#393C56;fillColor=#F2CC8F;" parent="Q3Qc4RJNEyqU-LYfuUZ3-87" vertex="1" connectable="0">
          <mxGeometry x="-0.4601" relative="1" as="geometry">
            <mxPoint x="-1" y="1" as="offset" />
          </mxGeometry>
        </mxCell>
        <mxCell id="Q3Qc4RJNEyqU-LYfuUZ3-93" style="edgeStyle=orthogonalEdgeStyle;rounded=0;orthogonalLoop=1;jettySize=auto;html=1;exitX=1;exitY=0.5;exitDx=0;exitDy=0;entryX=0.005;entryY=0.827;entryDx=0;entryDy=0;entryPerimeter=0;strokeColor=#E07A5F;fontColor=#393C56;fillColor=#F2CC8F;" parent="Q3Qc4RJNEyqU-LYfuUZ3-5" source="Q3Qc4RJNEyqU-LYfuUZ3-91" target="Q3Qc4RJNEyqU-LYfuUZ3-10" edge="1">
          <mxGeometry relative="1" as="geometry" />
        </mxCell>
        <mxCell id="Q3Qc4RJNEyqU-LYfuUZ3-94" value="Issue points" style="edgeLabel;html=1;align=center;verticalAlign=middle;resizable=0;points=[];strokeColor=#E07A5F;fontColor=#393C56;fillColor=#F2CC8F;" parent="Q3Qc4RJNEyqU-LYfuUZ3-93" vertex="1" connectable="0">
          <mxGeometry x="-0.3151" relative="1" as="geometry">
            <mxPoint as="offset" />
          </mxGeometry>
        </mxCell>
        <mxCell id="Q3Qc4RJNEyqU-LYfuUZ3-95" style="edgeStyle=orthogonalEdgeStyle;rounded=0;orthogonalLoop=1;jettySize=auto;html=1;exitX=0.5;exitY=1;exitDx=0;exitDy=0;exitPerimeter=0;entryX=1;entryY=0.75;entryDx=0;entryDy=0;strokeColor=#E07A5F;fontColor=#393C56;fillColor=#F2CC8F;" parent="Q3Qc4RJNEyqU-LYfuUZ3-5" source="Q3Qc4RJNEyqU-LYfuUZ3-10" target="Q3Qc4RJNEyqU-LYfuUZ3-91" edge="1">
          <mxGeometry relative="1" as="geometry" />
        </mxCell>
        <mxCell id="Q3Qc4RJNEyqU-LYfuUZ3-96" value="Sucess" style="edgeLabel;html=1;align=center;verticalAlign=middle;resizable=0;points=[];strokeColor=#E07A5F;fontColor=#393C56;fillColor=#F2CC8F;" parent="Q3Qc4RJNEyqU-LYfuUZ3-95" vertex="1" connectable="0">
          <mxGeometry x="-0.006" y="1" relative="1" as="geometry">
            <mxPoint as="offset" />
          </mxGeometry>
        </mxCell>
        <mxCell id="NIwn9OYLPKV0Wa0VJLMh-15" style="edgeStyle=orthogonalEdgeStyle;rounded=0;orthogonalLoop=1;jettySize=auto;html=1;strokeColor=#E07A5F;fontColor=#393C56;fillColor=#F2CC8F;exitX=0.45;exitY=1.05;exitDx=0;exitDy=0;entryX=0.5;entryY=0;entryDx=0;entryDy=0;exitPerimeter=0;" edge="1" parent="Q3Qc4RJNEyqU-LYfuUZ3-5" source="NIwn9OYLPKV0Wa0VJLMh-10" target="Q3Qc4RJNEyqU-LYfuUZ3-17">
          <mxGeometry relative="1" as="geometry">
            <mxPoint x="550" y="170" as="sourcePoint" />
            <mxPoint x="1290" y="625" as="targetPoint" />
            <Array as="points">
              <mxPoint x="504" y="530" />
              <mxPoint x="1320" y="530" />
            </Array>
          </mxGeometry>
        </mxCell>
        <mxCell id="NIwn9OYLPKV0Wa0VJLMh-16" value="Remove from redis" style="edgeLabel;html=1;align=center;verticalAlign=middle;resizable=0;points=[];strokeColor=#E07A5F;fontColor=#393C56;fillColor=#F2CC8F;" vertex="1" connectable="0" parent="NIwn9OYLPKV0Wa0VJLMh-15">
          <mxGeometry x="-0.0589" y="1" relative="1" as="geometry">
            <mxPoint as="offset" />
          </mxGeometry>
        </mxCell>
        <mxCell id="Q3Qc4RJNEyqU-LYfuUZ3-12" value="&lt;font style=&quot;font-size: 18px;&quot;&gt;Consumers&lt;/font&gt;" style="rounded=1;whiteSpace=wrap;html=1;strokeColor=#6c8ebf;fillColor=#dae8fc;labelPosition=center;verticalLabelPosition=top;align=center;verticalAlign=bottom;" parent="1" vertex="1">
          <mxGeometry x="30" y="80" width="180" height="280" as="geometry" />
        </mxCell>
        <mxCell id="Q3Qc4RJNEyqU-LYfuUZ3-14" style="edgeStyle=orthogonalEdgeStyle;rounded=0;orthogonalLoop=1;jettySize=auto;html=1;exitX=1;exitY=0.5;exitDx=0;exitDy=0;exitPerimeter=0;strokeColor=#E07A5F;fontColor=#393C56;fillColor=#F2CC8F;" parent="1" source="Q3Qc4RJNEyqU-LYfuUZ3-13" edge="1">
          <mxGeometry relative="1" as="geometry">
            <mxPoint x="320" y="220" as="targetPoint" />
          </mxGeometry>
        </mxCell>
        <mxCell id="Q3Qc4RJNEyqU-LYfuUZ3-13" value="" style="strokeWidth=2;html=1;shape=mxgraph.flowchart.start_2;whiteSpace=wrap;strokeColor=#E07A5F;fontColor=#393C56;fillColor=#F2CC8F;" parent="1" vertex="1">
          <mxGeometry x="85" y="190" width="70" height="60" as="geometry" />
        </mxCell>
        <mxCell id="Q3Qc4RJNEyqU-LYfuUZ3-15" value="&lt;b style=&quot;&quot;&gt;&lt;font style=&quot;font-size: 24px;&quot;&gt;Issuance Workflow&lt;/font&gt;&lt;/b&gt;" style="text;html=1;align=center;verticalAlign=middle;resizable=0;points=[];autosize=1;strokeColor=none;fillColor=none;fontColor=#393C56;" parent="1" vertex="1">
          <mxGeometry x="500" width="240" height="40" as="geometry" />
        </mxCell>
      </root>
    </mxGraphModel>
  </diagram>
</mxfile>
